#!OML:ASF E:/inclinewalkrobotboard/Project1/Captureday1/Session1/subject1.ASF
:FULLY-SPECIFIED
:DEGREES
38
root 0 0 0 12.41298284768293 8.729942446950568 -5.000183469371484
lowerback 13.909292594291394 3.7883613299587653 0.4233983015022943
upperback -4.528239044181992 4.5258898940774115 -2.257743740871846
thorax -12.092381040567567 2.126188894123016 -3.272448965826159
lowerneck -10.999101210794805 8.378977261204009 16.58581182281902
upperneck 36.56747003992783 8.468927612731497 -5.324672824539397
head 15.496581121686567 5.611334692653121 -3.7057333243683432
rclavicle 7.488140907697427E-15 1.1572370273740137E-14
rhumerus -2.108054213953119 12.04702016331885 -77.23467345316779
rradius 36.07679949451228
rwrist -9.897638252731904
rhand -25.997616425790188 -20.668854327286823
rfingers 7.125019999999953
rthumb 0.5640183484445167 -51.211709295793035
lclavicle 3.4001413486866545E-15 5.765632724988261E-15
lhumerus -46.143840755487844 15.850014153415437 68.20470651469383
lradius 55.88146298769648
lwrist -11.572986575337612
lhand -16.629109440322196 16.85325508717194
lfingers 7.125019999999878
lthumb 9.601631764925617 46.23707565392326
rfemur -2.466976951371094 18.644432766889096 35.144898059543536
rtibia -6.647784833102094
rfoot 5.97404331926537 -27.58825089920237
rtoes -52.01354561575941
lfemur -22.758185170956036 -25.565709280956828 -21.313264763293677
ltibia 4.688355406523101
lfoot -33.9602559548789 1.0674916796806357
ltoes -40.13752983928664
39
root 0 0 0 12.4176170751187 8.819253330270262 -5.014078826277801
lowerback 13.904914835661724 3.798576195589553 0.43044615090014327
upperback -4.527843867475675 4.540274861382188 -2.2515185963184843
thorax -12.090257647996342 2.133465906901934 -3.2689667588560387
lowerneck -10.993329442699128 8.370649764413134 16.5840980846673
upperneck 36.56397842412565 8.456206127727214 -5.3118444414753325
head 15.496397990193454 5.606746637572013 -3.702047446403968
rclavicle 7.485224215735719E-15 1.1589899833832072E-14
rhumerus -2.1413006337341614 12.049908532946048 -77.24626433813782
rradius 36.00684779182938
rwrist -9.842531927608027
rhand -25.988988560705536 -20.66235950212285
rfingers 7.125019999999953
rthumb 0.5725420219674184 -51.20458498771869
lclavicle 3.4820554803739568E-15 5.821732390279927E-15
lhumerus -46.15120343952542 16.00738450969896 68.1111283065382
lradius 55.770151406101256
lwrist -11.60728767839521
lhand -16.570477572977264 16.84654114095252
lfingers 7.1250199999998785
lthumb 9.658332945871503 46.22656429463105
rfemur -2.3369356479555727 18.600320032213737 35.154241171397096
rtibia -6.6951960378672375
rfoot 6.05227836912016 -27.59833191704831
rtoes -52.089157089181
lfemur -22.888690538190325 -25.6187583810902 -21.201667449810593
ltibia 4.581709966520904
lfoot -34.11863505262724 1.158412523433924
ltoes -40.12901921394389
40
root 0 0 0 12.417002355525788 8.710057737379742 -5.008869806719888
lowerback 13.921638695577204 3.787936480964488 0.4161786408161243
upperback -4.524274782574954 4.523778422776331 -2.258536481481662
thorax -12.095895334813246 2.125742799031806 -3.2682985021652864
lowerneck -10.999496329338765 8.39435126344058 16.607373012078035
upperneck 36.558556523112955 8.485899182988502 -5.3196730987963265
head 15.493721412268712 5.621484838459997 -3.705005917432979
rclavicle 7.460703424639927E-15 1.1605811586996327E-14
rhumerus -2.104779123923738 12.161257013336394 -77.3161472639606
rradius 36.100630208087686
rwrist -9.881567821429135
rhand -25.979349987942932 -20.634304930459475
rfingers 7.125019999999953
rthumb 0.5820209319606455 -51.1757631952375
lclavicle 3.527533267470755E-15 5.913270486002144E-15
lhumerus -46.16271063959934 16.160140966131102 68.03350148746802
lradius 55.66308950603216
lwrist -11.60873197265719
lhand -16.488099766096944 16.850290285829065
lfingers 7.125019999999879
lthumb 9.73790798300725 46.22555986342576
rfemur -2.2396423014855555 18.579687151033255 35.17077512262994
rtibia -6.740994924279377
rfoot 6.081728487068862 -27.602050279433065
rtoes -52.14915609169826
lfemur -23.116300858032158 -25.668060542231107 -21.049472684189105
ltibia 4.520455441722078
lfoot -34.35069773420472 1.2727577398319738
ltoes -40.121863547295945
41
root 0 0 0 12.434269347530975 8.863029458831864 -5.015727370906154
lowerback 13.882625119794085 3.8099001996425574 0.4313233858211587
upperback -4.531628756678066 4.555387879366054 -2.2565763962402743
thorax -12.085926790765942 2.1405040510836777 -3.2775985799143643
lowerneck -11.010864124636438 8.364191241510992 16.574929049517422
upperneck 36.53706937268124 8.443957923367117 -5.29644453792395
head 15.488253228049707 5.601858992750198 -3.695917751908877
rclavicle 7.502864104028851E-15 1.1632858939297035E-14
rhumerus -2.096494142576197 12.094881660856649 -77.26805310185276
rradius 35.98544395739732
rwrist -9.817015675464436
rhand -25.985002767770723 -20.65138362216
rfingers 7.125019999999953
rthumb 0.5767229442167707 -51.19335452359401
lclavicle 3.5953906914999205E-15 5.962402619001854E-15
lhumerus -46.14462615147701 16.272028644078794 67.95829064496102
lradius 55.604449711009515
lwrist -11.63434219847084
lhand -16.45718274917607 16.842485040537294
lfingers 7.12501999999988
lthumb 9.767828405767563 46.215796162340666
rfemur -2.1438865924873927 18.533469316394388 35.17489155481013
rtibia -6.758758478701832
rfoot 6.1527167909927165 -27.606205310210512
rtoes -52.18739301226287
lfemur -23.10951365235586 -25.715331902542008 -21.00895845171403
ltibia 4.401605350313915
lfoot -34.407043999675516 1.3299802115058714
ltoes -40.10344671813994
